<?xml version="1.0" encoding="utf-8"?>
<!-- Generator: Adobe Illustrator 19.0.0, SVG Export Plug-In . SVG Version: 6.00 Build 0)  -->
<svg version="1.1" xmlns="http://www.w3.org/2000/svg" xmlns:xlink="http://www.w3.org/1999/xlink" x="0px" y="0px" width="40px"
	 height="40px" viewBox="0 0 40 40" style="enable-background:new 0 0 40 40;" xml:space="preserve">
<style type="text/css">
	.st0{fill:#DB1429;}
	.st1{fill:#FFFFFF;}
	.st2{fill:#111844;}
</style>
<g id="bg">
	<rect x="-0.3" y="0" class="st0" width="40" height="40"/>
</g>
<g id="art">
	<path class="st1" d="M36.9,13.4c0,6.1,0,12.3,0,18.4c0,0.1-0.1,0.1-0.1,0.2c-0.4,2.4-1.7,4-4,4.9c-0.4,0.2-0.9,0.2-1.3,0.3
		c-11.6,0-12.4,0-24,0c-0.1,0-0.1-0.1-0.2-0.1c-2.4-0.4-4-1.7-4.9-4c-0.2-0.4-0.2-0.9-0.3-1.3c0-6.1,0-12.3,0-18.4
		c0.1-0.3,0.1-0.6,0.2-0.9c0.7-2.7,3-4.5,5.8-4.5c2.1,0-1,0,1.1,0c0.1,0,0.3,0,0.4,0c0-0.2,0.1-0.4,0.1-0.6c0.2-2.3,1.8-4.4,4.1-5
		c0.4-0.1,0.8-0.2,1.3-0.3c3.1,0,6.2,0,9.3,0c0.1,0,0.1,0,0.2,0.1c2.3,0.3,3.9,1.5,4.7,3.6c0.3,0.7,0.4,1.4,0.6,2.2
		c0.1,0,0.2,0,0.3,0c2.1,0-1.4,0,0.8,0c2.5,0,4.7,1.5,5.5,3.8C36.7,12.4,36.7,12.9,36.9,13.4z"/>
	<path d="M33.5,22.2c0.1-7.5-6.1-14-13.9-14c-7.8,0-14,6.4-14,13.9c0,7.4,5.9,14,14,14C27.6,36.1,33.5,29.4,33.5,22.2z"/>
	<path class="st2" d="M33.5,22.2c0.1,7.3-5.8,13.9-13.9,13.9c-8.1,0-14-6.6-14-14c0-7.5,6.2-13.9,14-13.9
		C27.4,8.2,33.6,14.7,33.5,22.2z"/>
	<path class="st1" d="M19.5,14.3c-4.3,0-7.8,3.5-7.9,7.8c-0.1,4.2,3.3,7.9,7.9,8c4.3,0,7.9-3.5,7.9-7.8
		C27.4,17.8,23.9,14.3,19.5,14.3z"/>
	<path class="st1" d="M19.5,11.5c6,0,10.7,4.8,10.7,10.8c0,5.9-4.8,10.7-10.7,10.6c-6.3,0-10.8-5.2-10.7-10.8
		C8.9,16.2,13.6,11.5,19.5,11.5z"/>
	<g>
		<path class="st2" d="M20.5,23.9h-2.8v4.3c0,0.6-0.1,1.1-0.4,1.4C17,29.9,16.6,30,16.2,30c-0.5,0-0.8-0.2-1.1-0.5
			c-0.3-0.3-0.4-0.8-0.4-1.4V16.5c0-0.7,0.2-1.2,0.5-1.4s0.8-0.4,1.5-0.4h3.9c1.2,0,2.1,0.1,2.7,0.3c0.6,0.2,1.2,0.5,1.6,0.9
			c0.5,0.4,0.8,0.9,1,1.5c0.2,0.6,0.4,1.2,0.4,2c0,1.5-0.5,2.7-1.4,3.5C23.8,23.5,22.4,23.9,20.5,23.9z M19.8,17h-2.1v4.6h2.1
			c0.7,0,1.3-0.1,1.8-0.2c0.5-0.2,0.9-0.4,1.1-0.7c0.3-0.3,0.4-0.8,0.4-1.4c0-0.7-0.2-1.2-0.6-1.6C22.1,17.2,21.2,17,19.8,17z"/>
	</g>
</g>
</svg>
