<?xml version="1.0" encoding="utf-8"?>
<!-- Generator: Adobe Illustrator 19.0.0, SVG Export Plug-In . SVG Version: 6.00 Build 0)  -->
<svg version="1.1" xmlns="http://www.w3.org/2000/svg" xmlns:xlink="http://www.w3.org/1999/xlink" x="0px" y="0px" width="60px"
	 height="60px" viewBox="0 0 60 60" style="enable-background:new 0 0 60 60;" xml:space="preserve">
<style type="text/css">
	.st0{fill:#DB1429;}
	.st1{fill:#FFFFFF;}
	.st2{fill:#111844;}
</style>
<g id="bg">
	<rect x="0" y="0" class="st0" width="60" height="60"/>
</g>
<g id="art">
	<path class="st1" d="M55.7,20.1c0,9.2,0,18.4,0,27.7c0,0.1-0.1,0.2-0.1,0.2c-0.5,3.6-2.6,6-6,7.3c-0.6,0.2-1.3,0.3-1.9,0.5
		c-17.4,0-18.6,0-36,0c-0.1,0-0.2-0.1-0.2-0.1c-3.6-0.6-6-2.6-7.3-6c-0.2-0.6-0.3-1.3-0.5-1.9c0-9.2,0-18.4,0-27.7
		c0.1-0.4,0.2-0.9,0.3-1.3c1.1-4,4.5-6.7,8.7-6.7c3.2,0-1.5,0,1.7,0c0.2,0,0.4,0,0.6,0c0-0.3,0.1-0.6,0.1-0.9
		c0.3-3.5,2.8-6.5,6.1-7.6c0.6-0.2,1.3-0.3,1.9-0.4c4.6,0,9.3,0,13.9,0c0.1,0,0.2,0.1,0.3,0.1c3.4,0.5,5.8,2.3,7.1,5.5
		c0.4,1,0.6,2.2,0.8,3.3c0.1,0,0.3,0,0.5,0c3.2,0-2,0,1.2,0c3.7,0,7,2.3,8.3,5.8C55.4,18.6,55.5,19.4,55.7,20.1z"/>
	<path d="M50.6,33.3c0.1-11.2-9.1-20.9-20.9-20.9c-11.7,0-20.9,9.6-21,20.8c0,11.1,8.9,21,21,21C41.9,54.1,50.7,44.2,50.6,33.3z"/>
	<path class="st2" d="M50.6,33.3c0.1,10.9-8.8,20.9-20.9,20.9c-12.1,0-21-9.9-21-21c0-11.2,9.2-20.8,21-20.8
		C41.5,12.3,50.7,22,50.6,33.3z"/>
	<path class="st1" d="M29.7,21.4c-6.5,0-11.8,5.2-11.8,11.6c-0.1,6.2,4.9,11.9,11.8,12c6.5,0,11.8-5.3,11.8-11.7
		C41.5,26.7,36.3,21.4,29.7,21.4z"/>
	<path class="st1" d="M29.7,17.2c9,0,16.1,7.1,16.1,16.1c0,8.8-7.3,16-16.1,16c-9.4,0-16.2-7.8-16.1-16.3
		C13.7,24.3,20.9,17.2,29.7,17.2z"/>
	<g>
		<path class="st2" d="M31.2,35.8H27v6.4c0,0.9-0.2,1.6-0.7,2.1c-0.4,0.5-1,0.7-1.6,0.7c-0.7,0-1.2-0.2-1.7-0.7
			c-0.4-0.5-0.6-1.2-0.6-2.1V24.8c0-1,0.2-1.7,0.7-2.2c0.5-0.4,1.2-0.7,2.2-0.7h5.9c1.7,0,3.1,0.1,4,0.4c0.9,0.3,1.7,0.7,2.4,1.3
			c0.7,0.6,1.2,1.3,1.5,2.2c0.4,0.9,0.5,1.8,0.5,2.9c0,2.3-0.7,4.1-2.1,5.3C36.2,35.2,34,35.8,31.2,35.8z M30.1,25.4H27v6.9h3.1
			c1.1,0,2-0.1,2.7-0.3c0.7-0.2,1.3-0.6,1.7-1.1c0.4-0.5,0.6-1.2,0.6-2c0-1-0.3-1.8-0.9-2.4C33.5,25.8,32.2,25.4,30.1,25.4z"/>
	</g>
</g>
</svg>
