<?xml version="1.0" encoding="utf-8"?>
<!-- Generator: Adobe Illustrator 19.0.0, SVG Export Plug-In . SVG Version: 6.00 Build 0)  -->
<svg version="1.1" xmlns="http://www.w3.org/2000/svg" xmlns:xlink="http://www.w3.org/1999/xlink" x="0px" y="0px" width="29px"
	 height="29px" viewBox="0 0 29 29" style="enable-background:new 0 0 29 29;" xml:space="preserve">
<style type="text/css">
	.st0{fill:#DB1429;}
	.st1{fill:#FFFFFF;}
	.st2{fill:#111844;}
</style>
<g id="bg">
	<rect x="0" y="0" class="st0" width="29.1" height="29.1"/>
</g>
<g id="art">
	<path class="st1" d="M27,9.7c0,4.5,0,8.9,0,13.4c0,0,0,0.1,0,0.1c-0.3,1.8-1.2,2.9-2.9,3.5c-0.3,0.1-0.6,0.2-0.9,0.2
		c-8.5,0-9,0-17.5,0c0,0-0.1,0-0.1,0c-1.7-0.3-2.9-1.2-3.5-2.9c-0.1-0.3-0.2-0.6-0.2-0.9c0-4.5,0-8.9,0-13.4c0-0.2,0.1-0.4,0.1-0.6
		c0.5-2,2.2-3.3,4.2-3.3c1.5,0-0.7,0,0.8,0c0.1,0,0.2,0,0.3,0c0-0.2,0-0.3,0.1-0.4c0.1-1.7,1.3-3.2,3-3.7c0.3-0.1,0.6-0.1,0.9-0.2
		c2.2,0,4.5,0,6.7,0c0,0,0.1,0,0.1,0c1.6,0.2,2.8,1.1,3.4,2.6c0.2,0.5,0.3,1.1,0.4,1.6c0,0,0.1,0,0.2,0c1.6,0-1,0,0.6,0
		c1.8,0,3.4,1.1,4,2.8C26.8,9,26.9,9.4,27,9.7z"/>
	<path d="M24.5,16.1c0.1-5.4-4.4-10.1-10.1-10.1C8.7,5.9,4.2,10.6,4.2,16c0,5.4,4.3,10.2,10.2,10.2C20.2,26.2,24.5,21.4,24.5,16.1z"
		/>
	<path class="st2" d="M24.5,16.1c0,5.3-4.2,10.1-10.1,10.1C8.5,26.2,4.2,21.4,4.2,16c0-5.4,4.5-10.1,10.2-10.1
		C20.1,5.9,24.6,10.6,24.5,16.1z"/>
	<path class="st1" d="M14.4,10.4c-3.1,0-5.7,2.5-5.7,5.6c0,3,2.4,5.8,5.7,5.8c3.1,0,5.7-2.6,5.7-5.7C20.1,12.9,17.6,10.4,14.4,10.4z
		"/>
	<path class="st1" d="M14.4,8.3c4.3,0,7.8,3.5,7.8,7.8c0,4.3-3.5,7.8-7.8,7.7c-4.5,0-7.8-3.8-7.8-7.9C6.6,11.7,10.1,8.3,14.4,8.3z"
		/>
	<g>
		<path class="st2" d="M15.1,17.3h-2v3.1c0,0.4-0.1,0.8-0.3,1c-0.2,0.2-0.5,0.3-0.8,0.3c-0.3,0-0.6-0.1-0.8-0.3
			c-0.2-0.2-0.3-0.6-0.3-1V12c0-0.5,0.1-0.8,0.3-1.1s0.6-0.3,1.1-0.3h2.9c0.8,0,1.5,0.1,2,0.2c0.5,0.1,0.8,0.3,1.2,0.6
			c0.3,0.3,0.6,0.6,0.7,1.1c0.2,0.4,0.3,0.9,0.3,1.4c0,1.1-0.3,2-1,2.5C17.5,17,16.5,17.3,15.1,17.3z M14.6,12.3H13v3.4h1.5
			c0.5,0,1-0.1,1.3-0.2c0.4-0.1,0.6-0.3,0.8-0.5c0.2-0.3,0.3-0.6,0.3-1c0-0.5-0.1-0.9-0.4-1.2C16.2,12.4,15.5,12.3,14.6,12.3z"/>
	</g>
</g>
</svg>
